<?xml version="1.0" encoding="UTF-8"?>
<!DOCTYPE svg PUBLIC "-//W3C//DTD SVG 1.1//EN" "http://www.w3.org/Graphics/SVG/1.1/DTD/svg11.dtd">
<!-- Creator: CorelDRAW 2018 (64 Bit Versão de avaliação) -->
<svg xmlns="http://www.w3.org/2000/svg" xml:space="preserve" width="4.33492cm" height="4.33492cm" version="1.1" style="shape-rendering:geometricPrecision; text-rendering:geometricPrecision; image-rendering:optimizeQuality; fill-rule:evenodd; clip-rule:evenodd"
viewBox="0 0 4.33492 4.33492"
 xmlns:xlink="http://www.w3.org/1999/xlink">
 <defs>
  <style type="text/css">
   <![CDATA[
    .fil0 {fill:white}
   ]]>
  </style>
 </defs>
 <g id="Camada_x0020_1">
  <metadata id="CorelCorpID_0Corel-Layer"/>
  <path class="fil0" d="M2.73353 2.64928c-0.00195,-0.01132 0.14682,-0.94615 0.15688,-0.96873 0.08522,0.00488 0.16253,0.11533 0.19372,0.19851 0.04079,0.10874 0.04964,0.23569 0.02616,0.35779 -0.02279,0.11858 -0.06449,0.20366 -0.12012,0.27861 -0.02273,0.03065 -0.06695,0.07343 -0.10314,0.09541 -0.04645,0.02823 -0.09052,0.04521 -0.1535,0.03841zm-0.38355 -0.93212l0.00006 0.00689c0.00003,0.08496 -0.01328,0.16621 -0.01479,0.24981 0.00229,0.09423 0.04832,0.1075 0.12942,0.12532l0.00018 0.13638 -0.00003 0 0.00003 0.01631c-0.06379,0.01421 -0.12716,0.02038 -0.12963,0.12527 0.00121,0.08206 0.01451,0.16217 0.01482,0.24562 0.00003,0.00382 0,0.00758 -0.00003,0.01129l0.00003 0.00502c0.00084,0.23087 -0.08917,0.23792 -0.28708,0.23614l-0.00165 -0.1252 0.00021 0 -0.00021 -0.01632c0.07333,-0.00105 0.10277,-0.00409 0.10795,-0.08625 0.00078,-0.01237 0.0012,-0.02511 0.00129,-0.03808 -0.00054,-0.07078 -0.00815,-0.14754 -0.00755,-0.21597 -0.00072,-0.0811 0.0081,-0.15242 0.05054,-0.19134 0.01403,-0.01288 0.03441,-0.0199 0.04859,-0.0264 -0.02411,-0.0106 -0.06728,-0.02384 -0.08583,-0.08565 -0.01008,-0.03365 -0.0127,-0.07944 -0.01237,-0.12954 -0.00051,-0.07032 0.00608,-0.15121 0.00659,-0.21958 -0.00012,-0.01309 -0.00051,-0.02565 -0.00129,-0.03745 -0.00533,-0.08167 -0.03486,-0.08519 -0.1078,-0.086l0.00003 -0.01632 -0.00003 0 0.0003 -0.12523c0.19519,-0.00175 0.28825,0.00475 0.28831,0.23186l-0.00006 0.00942zm-0.53158 0.68993c0.00012,0.01815 -0.00019,0.03802 -0.00094,0.05979 -0.0015,0.0438 -0.0046,0.09224 -0.00497,0.13863l0 0.00084c0.00013,0.01406 0.00058,0.02785 0.00142,0.04115 0.00557,0.08691 0.03435,0.08119 0.10783,0.08679l-0.00003 0.01632 0.00003 0 -0.00024 0.12424c-0.19697,0.01038 -0.28834,-0.01192 -0.28837,-0.23171l0.00006 -0.009 -0.00006 -0.00729c0,-0.10139 0.01448,-0.18237 0.01572,-0.24408 -0.00169,-0.07219 -0.02758,-0.11491 -0.13047,-0.1303l-0.00021 -0.13754 0.00003 0 -0.00003 -0.01632c0.07188,-0.01102 0.1274,-0.02815 0.12978,-0.12454 -0.00124,-0.08197 -0.01448,-0.16256 -0.01482,-0.24589 0,-0.00373 0.00003,-0.00741 0.00006,-0.01105l-0.00006 -0.00527c-0.00081,-0.22292 0.08917,-0.24556 0.28714,-0.23562l0.00159 0.12421 -0.00021 0.00003 0.00021 0.01628c-0.07354,0.0056 -0.10211,0.00012 -0.10792,0.08664 -0.00087,0.01271 -0.00129,0.02622 -0.00141,0.04025 0.00036,0.04718 0.00349,0.0982 0.00493,0.1408 0.00106,0.03119 0.00277,0.06259 0.00241,0.09272 0.00069,0.06768 -0.00629,0.13035 -0.04997,0.17135 -0.01614,0.01515 -0.03664,0.02087 -0.05085,0.02764 0.04287,0.02577 0.10085,0.00373 0.09935,0.23093zm-0.4513 0.93763l1.25144 0.00006 0.07213 -0.45238 0.07243 0.00614c0.07532,0.00515 0.17888,-0.0367 0.2324,-0.06966 0.03447,-0.02125 0.05822,-0.03947 0.08628,-0.06412 0.05464,-0.04805 0.09865,-0.10597 0.13839,-0.16883 0.24998,-0.39533 0.1429,-1.0733 -0.29084,-1.1594l0.07249 -0.44618 -2.01969 -0.00021 0.38497 2.35458z"/>
 </g>
</svg>
